<mxfile host="app.diagrams.net" modified="2023-03-28T12:48:24.831Z" agent="Mozilla/5.0 (Windows NT 10.0; Win64; x64) AppleWebKit/537.36 (KHTML, like Gecko) Chrome/111.0.0.0 Safari/537.36 Edg/111.0.1661.54" etag="RmEJfrChlQUllZEfp-s9" version="21.1.1" type="github">
  <diagram name="Page-1" id="W8KS0mFSP3B1Hy8ZlSht">
    <mxGraphModel dx="1377" dy="796" grid="1" gridSize="10" guides="1" tooltips="1" connect="1" arrows="1" fold="1" page="1" pageScale="1" pageWidth="827" pageHeight="1169" math="0" shadow="0">
      <root>
        <mxCell id="0" />
        <mxCell id="1" parent="0" />
        <mxCell id="SPZ18Rd4tsqL7bU3FgN4-5" value="Site web de contrôle d&#39;accès&amp;nbsp;" style="shape=rect;html=1;verticalAlign=top;fontStyle=1;whiteSpace=wrap;align=center;fillColor=#dae8fc;strokeColor=#6c8ebf;" parent="1" vertex="1">
          <mxGeometry x="160" y="60" width="580" height="340" as="geometry" />
        </mxCell>
        <mxCell id="SPZ18Rd4tsqL7bU3FgN4-7" value="Surveillant" style="shape=umlActor;html=1;verticalLabelPosition=bottom;verticalAlign=top;align=center;" parent="1" vertex="1">
          <mxGeometry x="50" y="140" width="60" height="110" as="geometry" />
        </mxCell>
        <mxCell id="SPZ18Rd4tsqL7bU3FgN4-11" value="Connexion sur IP" style="shape=ellipse;html=1;strokeWidth=1;fontStyle=1;whiteSpace=wrap;align=center;perimeter=ellipsePerimeter;fillColor=#d5e8d4;strokeColor=#82b366;" parent="1" vertex="1">
          <mxGeometry x="180" y="110" width="180" height="110" as="geometry" />
        </mxCell>
        <mxCell id="SPZ18Rd4tsqL7bU3FgN4-14" value="" style="edgeStyle=none;html=1;endArrow=none;verticalAlign=bottom;rounded=0;exitX=1;exitY=0.3333333333333333;exitDx=0;exitDy=0;exitPerimeter=0;entryX=0;entryY=0.5;entryDx=0;entryDy=0;" parent="1" source="SPZ18Rd4tsqL7bU3FgN4-7" target="SPZ18Rd4tsqL7bU3FgN4-11" edge="1">
          <mxGeometry width="160" relative="1" as="geometry">
            <mxPoint x="390" y="440" as="sourcePoint" />
            <mxPoint x="550" y="440" as="targetPoint" />
          </mxGeometry>
        </mxCell>
        <mxCell id="SPZ18Rd4tsqL7bU3FgN4-17" value="&amp;lt;&amp;lt;include&amp;gt;&amp;gt;" style="edgeStyle=none;html=1;endArrow=open;verticalAlign=bottom;dashed=1;labelBackgroundColor=none;rounded=0;exitX=0.5;exitY=1;exitDx=0;exitDy=0;entryX=0.145;entryY=0.145;entryDx=0;entryDy=0;entryPerimeter=0;" parent="1" source="SPZ18Rd4tsqL7bU3FgN4-11" target="SPZ18Rd4tsqL7bU3FgN4-18" edge="1">
          <mxGeometry width="160" relative="1" as="geometry">
            <mxPoint x="390" y="290" as="sourcePoint" />
            <mxPoint x="550" y="290" as="targetPoint" />
          </mxGeometry>
        </mxCell>
        <mxCell id="SPZ18Rd4tsqL7bU3FgN4-18" value="Saisie d&#39;un nom d&#39;utilisateur et de mot de passe" style="html=1;shape=mxgraph.sysml.useCaseExtPt;whiteSpace=wrap;align=center;strokeWidth=1;fillColor=#d5e8d4;strokeColor=#82b366;" parent="1" vertex="1">
          <mxGeometry x="260" y="260" width="180" height="110" as="geometry" />
        </mxCell>
        <mxCell id="SPZ18Rd4tsqL7bU3FgN4-19" value="Identification" style="resizable=0;html=1;verticalAlign=middle;align=center;labelBackgroundColor=none;fontStyle=1;" parent="SPZ18Rd4tsqL7bU3FgN4-18" connectable="0" vertex="1">
          <mxGeometry x="89.99999999999999" y="23.375000000000004" as="geometry" />
        </mxCell>
        <mxCell id="SPZ18Rd4tsqL7bU3FgN4-20" value="Accès a la liste d&#39;élève identifiée [Horaire d&#39;arrivée , Identifiée les élèves]" style="shape=ellipse;html=1;strokeWidth=1;fontStyle=1;whiteSpace=wrap;align=center;perimeter=ellipsePerimeter;fillColor=#d5e8d4;strokeColor=#82b366;" parent="1" vertex="1">
          <mxGeometry x="530" y="260" width="180" height="110" as="geometry" />
        </mxCell>
        <mxCell id="SPZ18Rd4tsqL7bU3FgN4-21" value="&amp;lt;&amp;lt;include&amp;gt;&amp;gt;" style="edgeStyle=none;html=1;endArrow=open;verticalAlign=bottom;dashed=1;labelBackgroundColor=none;rounded=0;exitX=1;exitY=0.5;exitDx=0;exitDy=0;exitPerimeter=0;entryX=0;entryY=0.5;entryDx=0;entryDy=0;" parent="1" source="SPZ18Rd4tsqL7bU3FgN4-18" target="SPZ18Rd4tsqL7bU3FgN4-20" edge="1">
          <mxGeometry width="160" relative="1" as="geometry">
            <mxPoint x="390" y="230" as="sourcePoint" />
            <mxPoint x="550" y="230" as="targetPoint" />
          </mxGeometry>
        </mxCell>
        <mxCell id="SPZ18Rd4tsqL7bU3FgN4-22" value="Récupération des différents identifiants par base de données" style="shape=note;size=15;align=left;spacingLeft=10;html=1;whiteSpace=wrap;fillColor=#f8cecc;strokeColor=#b85450;" parent="1" vertex="1">
          <mxGeometry x="414" y="120" width="206" height="60" as="geometry" />
        </mxCell>
        <mxCell id="SPZ18Rd4tsqL7bU3FgN4-23" value="" style="edgeStyle=none;endArrow=none;exitX=0.5;exitY=1;dashed=1;html=1;rounded=0;entryX=0.855;entryY=0.145;entryDx=0;entryDy=0;entryPerimeter=0;exitDx=0;exitDy=0;exitPerimeter=0;" parent="1" source="SPZ18Rd4tsqL7bU3FgN4-22" target="SPZ18Rd4tsqL7bU3FgN4-18" edge="1">
          <mxGeometry x="1" relative="1" as="geometry">
            <mxPoint x="434" y="100" as="targetPoint" />
          </mxGeometry>
        </mxCell>
      </root>
    </mxGraphModel>
  </diagram>
</mxfile>
